<svg xmlns="http://www.w3.org/2000/svg" viewBox="0 0 24 24">
<path fill="#ffffff" d="M19.14 12.94a7.6 7.6 0 0 0 .05-.94 7.6 7.6 0 0 0-.05-.94l2.03-1.58a.5.5 0 0 0 .12-.64l-1.92-3.32a.5.5 0 0 0-.6-.22l-2.39.96a7.1 7.1 0 0 0-1.63-.94l-.36-2.54A.5.5 0 0 0 12.9 1h-3.8a.5.5 0 0 0-.49.41l-.36 2.54a7.1 7.1 0 0 0-1.63.94l-2.39-.96a.5.5 0 0 0-.6.22L1.71 7.46a.5.5 0 0 0 .12.64l2.03 1.58a7.6 7.6 0 0 0-.05.94c0 .32.02.63.05.94L1.83 14.52a.5.5 0 0 0-.12.64l1.92 3.32a.5.5 0 0 0 .6.22l2.39-.96c.5.39 1.05.72 1.63.94l.36 2.54a.5.5 0 0 0 .49.41h3.8a.5.5 0 0 0 .49-.41l.36-2.54c.58-.22 1.13-.55 1.63-.94l2.39.96a.5.5 0 0 0 .6-.22l1.92-3.32a.5.5 0 0 0-.12-.64l-2.03-1.58ZM11 15.5A3.5 3.5 0 1 1 14.5 12 3.5 3.5 0 0 1 11 15.5Z"/>
</svg>